<svg width="112" height="26" viewBox="0 0 112 26" fill="none" xmlns="http://www.w3.org/2000/svg">
<g clip-path="url(#clip0_12_81)">
<rect x="0.786758" y="0.202026" width="111.213" height="25.023" rx="3.88614" fill="#6F36BC"/>
<path d="M23.5612 15.1506V8.38112H24.3736V14.5027H27.5262V15.1506H23.5612ZM30.1894 15.2667C29.7897 15.2667 29.4577 15.199 29.1933 15.0636C28.929 14.9282 28.7324 14.7477 28.6034 14.522C28.4745 14.2964 28.41 14.0514 28.41 13.787C28.41 13.2971 28.597 12.9199 28.9709 12.6556C29.3449 12.3912 29.8542 12.2591 30.4989 12.2591H31.7948V12.2011C31.7948 11.782 31.6852 11.4661 31.466 11.2533C31.2468 11.0341 30.9534 10.9245 30.5859 10.9245C30.27 10.9245 29.996 11.0051 29.7639 11.1663C29.5383 11.321 29.3964 11.5499 29.3384 11.8529H28.5067C28.539 11.5048 28.655 11.2114 28.8549 10.9729C29.0612 10.7343 29.3158 10.5538 29.6189 10.4313C29.9219 10.3024 30.2442 10.2379 30.5859 10.2379C31.2564 10.2379 31.7593 10.4184 32.0946 10.7795C32.4363 11.134 32.6071 11.6079 32.6071 12.2011V15.1506H31.8818L31.8335 14.2899C31.6981 14.5607 31.4982 14.7928 31.2339 14.9862C30.976 15.1732 30.6278 15.2667 30.1894 15.2667ZM30.3152 14.58C30.6246 14.58 30.8889 14.4995 31.1082 14.3383C31.3338 14.1771 31.5046 13.9676 31.6207 13.7097C31.7367 13.4518 31.7948 13.181 31.7948 12.8973V12.8877H30.5666C30.0895 12.8877 29.751 12.9715 29.5512 13.1391C29.3578 13.3003 29.261 13.5034 29.261 13.7484C29.261 13.9998 29.3513 14.2029 29.5318 14.3576C29.7188 14.5059 29.9799 14.58 30.3152 14.58ZM35.5762 15.2667C35.0088 15.2667 34.5575 15.0958 34.2223 14.7541C33.887 14.406 33.7194 13.8741 33.7194 13.1585V10.3539H34.5317V13.0714C34.5317 14.0707 34.9411 14.5704 35.7599 14.5704C36.179 14.5704 36.5239 14.4221 36.7947 14.1255C37.0719 13.8225 37.2105 13.3938 37.2105 12.8393V10.3539H38.0229V15.1506H37.2879L37.2299 14.2899C37.0816 14.5929 36.8592 14.8315 36.5626 15.0056C36.2725 15.1796 35.9437 15.2667 35.5762 15.2667ZM39.36 15.1506V10.3539H40.095L40.1433 11.2146C40.298 10.9116 40.5205 10.6731 40.8106 10.499C41.1007 10.3249 41.4295 10.2379 41.797 10.2379C42.3644 10.2379 42.8157 10.412 43.1509 10.7601C43.4926 11.1018 43.6635 11.6305 43.6635 12.3461V15.1506H42.8511V12.4331C42.8511 11.4338 42.4385 10.9342 41.6133 10.9342C41.2007 10.9342 40.8557 11.0857 40.5785 11.3887C40.3077 11.6853 40.1723 12.1108 40.1723 12.6652V15.1506H39.36ZM47.0991 15.2667C46.6414 15.2667 46.2288 15.1635 45.8613 14.9572C45.5002 14.7444 45.2133 14.4511 45.0006 14.0772C44.7943 13.6968 44.6911 13.2552 44.6911 12.7523C44.6911 12.2494 44.7943 11.811 45.0006 11.4371C45.2133 11.0567 45.5002 10.7633 45.8613 10.557C46.2288 10.3443 46.6414 10.2379 47.0991 10.2379C47.6665 10.2379 48.1436 10.3862 48.5304 10.6827C48.9237 10.9793 49.1719 11.3758 49.275 11.8722H48.4434C48.3789 11.5757 48.2209 11.3468 47.9695 11.1856C47.7181 11.018 47.4247 10.9342 47.0895 10.9342C46.8187 10.9342 46.564 11.0019 46.3255 11.1373C46.0869 11.2727 45.8935 11.4757 45.7452 11.7465C45.5969 12.0173 45.5228 12.3526 45.5228 12.7523C45.5228 13.152 45.5969 13.4873 45.7452 13.758C45.8935 14.0288 46.0869 14.2351 46.3255 14.377C46.564 14.5124 46.8187 14.58 47.0895 14.58C47.4247 14.58 47.7181 14.4995 47.9695 14.3383C48.2209 14.1707 48.3789 13.9353 48.4434 13.6323H49.275C49.1783 14.1159 48.9333 14.5091 48.5401 14.8121C48.1468 15.1152 47.6665 15.2667 47.0991 15.2667ZM50.4095 15.1506V8.1877H51.2219V11.176C51.3831 10.8794 51.6119 10.6505 51.9085 10.4893C52.2051 10.3217 52.5274 10.2379 52.8756 10.2379C53.43 10.2379 53.8749 10.412 54.2101 10.7601C54.5454 11.1018 54.713 11.6305 54.713 12.3461V15.1506H53.9103V12.4331C53.9103 11.4338 53.5074 10.9342 52.7015 10.9342C52.2824 10.9342 51.9311 11.0857 51.6474 11.3887C51.3637 11.6853 51.2219 12.1108 51.2219 12.6652V15.1506H50.4095ZM60.3986 15.1506C59.9602 15.1506 59.6152 15.0442 59.3638 14.8315C59.1124 14.6187 58.9866 14.2351 58.9866 13.6807V11.0406H58.155V10.3539H58.9866L59.093 9.20313H59.799V10.3539H61.2109V11.0406H59.799V13.6807C59.799 13.9837 59.8602 14.19 59.9827 14.2996C60.1052 14.4028 60.3212 14.4543 60.6307 14.4543H61.1335V15.1506H60.3986ZM64.2963 15.2667C63.845 15.2667 63.4388 15.1635 63.0778 14.9572C62.7168 14.7509 62.4299 14.4608 62.2171 14.0868C62.0108 13.7065 61.9076 13.2616 61.9076 12.7523C61.9076 12.243 62.014 11.8013 62.2268 11.4274C62.4395 11.047 62.7264 10.7537 63.0875 10.5474C63.455 10.341 63.8643 10.2379 64.3157 10.2379C64.767 10.2379 65.1731 10.341 65.5342 10.5474C65.8952 10.7537 66.1789 11.047 66.3852 11.4274C66.5979 11.8013 66.7043 12.243 66.7043 12.7523C66.7043 13.2616 66.5979 13.7065 66.3852 14.0868C66.1724 14.4608 65.8823 14.7509 65.5148 14.9572C65.1538 15.1635 64.7476 15.2667 64.2963 15.2667ZM64.2963 14.5704C64.5735 14.5704 64.8314 14.5027 65.07 14.3673C65.3085 14.2319 65.5019 14.0288 65.6502 13.758C65.7985 13.4873 65.8726 13.152 65.8726 12.7523C65.8726 12.3526 65.7985 12.0173 65.6502 11.7465C65.5084 11.4757 65.3182 11.2727 65.0796 11.1373C64.8411 11.0019 64.5864 10.9342 64.3157 10.9342C64.0384 10.9342 63.7805 11.0019 63.542 11.1373C63.3034 11.2727 63.11 11.4757 62.9617 11.7465C62.8135 12.0173 62.7393 12.3526 62.7393 12.7523C62.7393 13.152 62.8135 13.4873 62.9617 13.758C63.11 14.0288 63.3002 14.2319 63.5323 14.3673C63.7709 14.5027 64.0255 14.5704 64.2963 14.5704Z" fill="white"/>
<g clip-path="url(#clip1_12_81)">
<path d="M81.6217 15.3691V10.6835H82.3287V14.7605H84.4518V15.3691H81.6217Z" fill="white"/>
<path d="M86.4836 10.6835H87.2866L88.5106 12.8136H88.561L89.785 10.6835H90.588L88.8882 13.5297V15.3691H88.1835V13.5297L86.4836 10.6835Z" fill="white"/>
<path d="M93.1882 15.3691V10.6835H94.8585C95.2215 10.6835 95.5226 10.7461 95.7622 10.8711C96.0031 10.9962 96.1832 11.1693 96.3021 11.3905C96.4211 11.6101 96.4806 11.8641 96.4806 12.1524C96.4806 12.4391 96.4202 12.6915 96.2999 12.9096C96.1809 13.1262 96.0008 13.2948 95.7599 13.4153C95.5204 13.5357 95.2193 13.596 94.8562 13.596H93.591V12.9874H94.7921C95.021 12.9874 95.207 12.9546 95.3503 12.889C95.4953 12.8235 95.6013 12.7281 95.6683 12.6031C95.7355 12.478 95.769 12.3278 95.769 12.1524C95.769 11.9754 95.7346 11.8221 95.666 11.6925C95.599 11.5629 95.493 11.4637 95.348 11.3951C95.2047 11.3249 95.0164 11.2898 94.783 11.2898H93.8952V15.3691H93.1882ZM95.5014 13.2551L96.6591 15.3691H95.8536L94.719 13.2551H95.5014Z" fill="white"/>
<path d="M99.9807 10.6835V15.3691H99.2736V10.6835H99.9807Z" fill="white"/>
<path d="M104.46 15.3691H102.943V10.6835H104.508C104.967 10.6835 105.361 10.7773 105.691 10.965C106.02 11.151 106.273 11.4187 106.448 11.768C106.625 12.1158 106.713 12.5329 106.713 13.0195C106.713 13.5075 106.624 13.927 106.446 14.2778C106.269 14.6286 106.013 14.8986 105.677 15.0877C105.341 15.2753 104.936 15.3691 104.46 15.3691ZM103.65 14.7514H104.421C104.778 14.7514 105.074 14.6843 105.311 14.55C105.547 14.4143 105.724 14.2183 105.842 13.9621C105.959 13.7043 106.018 13.3901 106.018 13.0195C106.018 12.6519 105.959 12.3399 105.842 12.0837C105.726 11.8275 105.553 11.633 105.322 11.5003C105.092 11.3676 104.806 11.3013 104.464 11.3013H103.65V14.7514Z" fill="white"/>
<path fill-rule="evenodd" clip-rule="evenodd" d="M80.571 4.60077L84.7641 7.19312L79.9391 8.81844L76.4071 16.7441L70.2812 17.6064L75.1314 8.66459L79.5306 8.34392L80.571 4.60077ZM80.1375 8.1807L83.5004 7.0479L80.8993 5.43984L80.1375 8.1807ZM79.3093 8.90253L75.4659 9.18269L71.2685 16.921L76.0349 16.2501L79.3093 8.90253Z" fill="white"/>
<path d="M80.6804 5.64512C81.1637 5.64512 81.5555 5.25333 81.5555 4.77003C81.5555 4.28673 81.1637 3.89494 80.6804 3.89494C80.1971 3.89494 79.8053 4.28673 79.8053 4.77003C79.8053 5.25333 80.1971 5.64512 80.6804 5.64512Z" fill="white"/>
<path d="M80.6804 5.53575C81.1033 5.53575 81.4461 5.19294 81.4461 4.77005C81.4461 4.34717 81.1033 4.00435 80.6804 4.00435C80.2575 4.00435 79.9147 4.34717 79.9147 4.77005C79.9147 5.19294 80.2575 5.53575 80.6804 5.53575Z" fill="white" stroke="#999999" stroke-opacity="0.8" stroke-width="0.218772"/>
<path d="M84.1807 7.83289C84.664 7.83289 85.0558 7.44108 85.0558 6.95779C85.0558 6.47449 84.664 6.0827 84.1807 6.0827C83.6974 6.0827 83.3056 6.47449 83.3056 6.95779C83.3056 7.44108 83.6974 7.83289 84.1807 7.83289Z" fill="white"/>
<path d="M84.1807 7.72357C84.6036 7.72357 84.9464 7.38074 84.9464 6.95787C84.9464 6.53497 84.6036 6.19217 84.1807 6.19217C83.7578 6.19217 83.415 6.53497 83.415 6.95787C83.415 7.38074 83.7578 7.72357 84.1807 7.72357Z" fill="white" stroke="#999999" stroke-opacity="0.8" stroke-width="0.218772"/>
<path d="M70.6168 17.8964C71.1001 17.8964 71.4919 17.5046 71.4919 17.0213C71.4919 16.538 71.1001 16.1462 70.6168 16.1462C70.1336 16.1462 69.7418 16.538 69.7418 17.0213C69.7418 17.5046 70.1336 17.8964 70.6168 17.8964Z" fill="white"/>
<path d="M70.6168 17.7871C71.0397 17.7871 71.3825 17.4443 71.3825 17.0214C71.3825 16.5985 71.0397 16.2557 70.6168 16.2557C70.194 16.2557 69.8511 16.5985 69.8511 17.0214C69.8511 17.4443 70.194 17.7871 70.6168 17.7871Z" fill="white" stroke="#999999" stroke-opacity="0.8" stroke-width="0.218772"/>
<path d="M75.8674 17.4588C76.3507 17.4588 76.7425 17.067 76.7425 16.5837C76.7425 16.1004 76.3507 15.7086 75.8674 15.7086C75.3841 15.7086 74.9923 16.1004 74.9923 16.5837C74.9923 17.067 75.3841 17.4588 75.8674 17.4588Z" fill="white"/>
<path d="M75.8675 17.3495C76.2903 17.3495 76.6332 17.0067 76.6332 16.5838C76.6332 16.1609 76.2903 15.8181 75.8675 15.8181C75.4446 15.8181 75.1018 16.1609 75.1018 16.5838C75.1018 17.0067 75.4446 17.3495 75.8675 17.3495Z" fill="white" stroke="#999999" stroke-opacity="0.8" stroke-width="0.218772"/>
<path d="M75.4298 10.0205C75.9131 10.0205 76.3049 9.62872 76.3049 9.14542C76.3049 8.66212 75.9131 8.27034 75.4298 8.27034C74.9465 8.27034 74.5547 8.66212 74.5547 9.14542C74.5547 9.62872 74.9465 10.0205 75.4298 10.0205Z" fill="white"/>
<path d="M75.4299 9.91118C75.8528 9.91118 76.1956 9.56836 76.1956 9.14548C76.1956 8.72259 75.8528 8.37976 75.4299 8.37976C75.007 8.37976 74.6642 8.72259 74.6642 9.14548C74.6642 9.56836 75.007 9.91118 75.4299 9.91118Z" fill="white" stroke="#999999" stroke-opacity="0.8" stroke-width="0.218772"/>
<path d="M79.3678 9.58306C79.8511 9.58306 80.2429 9.19128 80.2429 8.70798C80.2429 8.22468 79.8511 7.8329 79.3678 7.8329C78.8845 7.8329 78.4927 8.22468 78.4927 8.70798C78.4927 9.19128 78.8845 9.58306 79.3678 9.58306Z" fill="white"/>
<path d="M79.3678 9.4737C79.7906 9.4737 80.1335 9.1309 80.1335 8.70801C80.1335 8.28513 79.7906 7.94231 79.3678 7.94231C78.9449 7.94231 78.6021 8.28513 78.6021 8.70801C78.6021 9.1309 78.9449 9.4737 79.3678 9.4737Z" fill="white" stroke="#999999" stroke-opacity="0.8" stroke-width="0.218772"/>
</g>
<path d="M19.0621 7.1566C19.0476 7.06529 19.0061 6.98043 18.9428 6.91304C18.8795 6.84565 18.7975 6.79885 18.7072 6.77872C18.2076 6.68275 17.6999 6.63491 17.1911 6.63586C15.6823 6.64033 14.207 7.08038 12.9423 7.90314C12.8397 7.96925 12.7676 8.07332 12.7417 8.19253C12.7158 8.31175 12.7382 8.43637 12.804 8.53908C12.8364 8.59022 12.8785 8.63449 12.928 8.66935C12.9775 8.7042 13.0334 8.72897 13.0924 8.74224C13.1515 8.75551 13.2126 8.75701 13.2722 8.74666C13.3318 8.73631 13.3888 8.71432 13.44 8.68194C13.8818 8.39837 14.3531 8.16351 14.8455 7.98148L17.9192 11.1335C17.9624 11.1776 18.0141 11.2126 18.0711 11.2363C18.1281 11.2601 18.1893 11.2721 18.251 11.2718C18.3147 11.2708 18.3774 11.2567 18.4353 11.2303C18.514 11.2148 18.5873 11.179 18.6479 11.1264C18.7085 11.0739 18.7544 11.0065 18.781 10.9308C19.0248 10.1992 19.1553 9.43457 19.1681 8.6635C19.1759 8.1591 19.1404 7.65494 19.0621 7.1566ZM17.1773 7.55752C17.5183 7.55242 17.859 7.5771 18.1957 7.63125C18.2353 7.96613 18.2523 8.3033 18.2464 8.64046C18.2316 9.09182 18.1746 9.54079 18.0759 9.98147L15.8409 7.67733C16.281 7.59125 16.7289 7.5511 17.1773 7.55752Z" fill="white"/>
<path d="M17.0298 12.3686C16.0561 13.7378 14.7866 14.8702 13.3155 15.6819C13.308 15.6656 13.2988 15.6501 13.2879 15.6358L12.7165 15.069C12.6741 15.0257 12.6236 14.9912 12.5679 14.9675C12.5122 14.9437 12.4524 14.9311 12.3918 14.9305C12.3313 14.9299 12.2712 14.9411 12.215 14.9637C12.1588 14.9863 12.1077 15.0197 12.0644 15.0621C12.0211 15.1045 11.9866 15.1549 11.9628 15.2106C11.9391 15.2663 11.9265 15.3261 11.9259 15.3867C11.9252 15.4472 11.9365 15.5073 11.9591 15.5635C11.9817 15.6197 12.0151 15.6709 12.0575 15.7142L12.2879 15.9492L11.9561 16.2718L9.4031 13.6312L9.73029 13.3086L11.1773 14.7925C11.2207 14.8361 11.2724 14.8706 11.3294 14.8939H11.3939C11.4297 14.9061 11.4668 14.9138 11.5045 14.9169C11.5437 14.9142 11.5824 14.9065 11.6197 14.8939C11.6381 14.8961 11.6566 14.8961 11.675 14.8939C11.7308 14.8706 11.7823 14.8378 11.8271 14.7971C11.8702 14.7543 11.9045 14.7033 11.9279 14.6472C11.9513 14.591 11.9634 14.5308 11.9634 14.4699C11.9634 14.4091 11.9513 14.3489 11.9279 14.2927C11.9045 14.2365 11.8702 14.1856 11.8271 14.1427L10.0206 12.2994C10.5884 11.3602 11.2779 10.5002 12.0713 9.74184C12.1425 9.67758 12.1919 9.59271 12.2126 9.49905C12.2333 9.40539 12.2242 9.30761 12.1867 9.21934C12.1491 9.13107 12.085 9.05672 12.0032 9.00665C11.9214 8.95657 11.826 8.93327 11.7303 8.94C11.0395 8.75858 10.313 8.76367 9.62488 8.95473C8.93673 9.14579 8.3116 9.51599 7.81325 10.0276C7.73019 10.1135 7.68376 10.2283 7.68376 10.3478C7.68376 10.4673 7.73019 10.5822 7.81325 10.6681L9.10357 11.9907C9.10357 11.9907 9.10357 11.9907 9.13122 11.9907C9.15887 11.9907 9.08053 12.069 9.05748 12.1059C9.01025 12.1862 8.98849 12.279 8.99507 12.372C9.00165 12.4649 9.03627 12.5537 9.09435 12.6266L8.43076 13.2948C8.34493 13.3812 8.29675 13.498 8.29675 13.6197C8.29675 13.7414 8.34493 13.8582 8.43076 13.9446L11.6566 17.2441C11.7416 17.3309 11.8576 17.3806 11.9791 17.3824C12.0978 17.3819 12.2117 17.3357 12.2971 17.2533L12.9653 16.6036C13.0464 16.6729 13.149 16.712 13.2556 16.7142C13.332 16.7145 13.4069 16.6938 13.4722 16.6543L13.592 16.5897C13.592 16.5897 13.592 16.5897 13.592 16.6174L14.8777 17.9354C14.9206 17.9803 14.972 18.0161 15.0291 18.0406C15.0861 18.0652 15.1475 18.078 15.2095 18.0782C15.326 18.0778 15.4379 18.0334 15.5229 17.9538C16.0288 17.4804 16.4056 16.8858 16.6177 16.2262C16.8298 15.5666 16.8701 14.8638 16.7349 14.1842C17.1204 13.7808 17.4718 13.3461 17.7856 12.8847C17.8194 12.8345 17.8431 12.778 17.8552 12.7187C17.8673 12.6593 17.8676 12.5981 17.856 12.5386C17.8445 12.4792 17.8213 12.4225 17.7879 12.372C17.7544 12.3215 17.7114 12.278 17.6611 12.2441C17.6109 12.2102 17.5545 12.1866 17.4951 12.1745C17.4357 12.1624 17.3746 12.1621 17.3151 12.1737C17.2556 12.1852 17.199 12.2084 17.1485 12.2418C17.0979 12.2753 17.0545 12.3183 17.0206 12.3686H17.0298ZM8.80864 10.3824C9.37626 9.95153 10.0731 9.72574 10.7856 9.74184C10.3639 10.2138 9.97735 10.7159 9.62891 11.2441L8.80864 10.3824ZM15.7717 15.8524C15.656 16.2463 15.4651 16.6141 15.2095 16.9354L14.3893 16.092C14.9182 15.7523 15.4232 15.3766 15.9008 14.9676C15.9019 15.2673 15.8584 15.5655 15.7717 15.8524Z" fill="white"/>
<path d="M14.099 13.5483C14.5245 13.5489 14.9371 13.4024 15.2669 13.1334C15.5966 12.8645 15.8232 12.4898 15.9081 12.0728C15.993 11.6559 15.9311 11.2224 15.7328 10.8459C15.5345 10.4694 15.212 10.1731 14.8201 10.0073C14.4282 9.84153 13.991 9.81642 13.5828 9.93626C13.1745 10.0561 12.8202 10.3135 12.5801 10.6648C12.34 11.0161 12.2288 11.4397 12.2654 11.8636C12.302 12.2875 12.4842 12.6857 12.781 12.9907C12.9524 13.1668 13.1573 13.3068 13.3837 13.4026C13.61 13.4983 13.8532 13.5479 14.099 13.5483ZM13.4538 11.046C13.5827 10.9172 13.747 10.8295 13.9257 10.794C14.1045 10.7585 14.2897 10.7769 14.4581 10.8466C14.6264 10.9164 14.7703 11.0346 14.8716 11.1861C14.9728 11.3377 15.0268 11.5158 15.0268 11.698C15.0268 11.8803 14.9728 12.0584 14.8716 12.21C14.7703 12.3615 14.6264 12.4797 14.4581 12.5494C14.2897 12.6192 14.1045 12.6375 13.9257 12.6021C13.747 12.5666 13.5827 12.4789 13.4538 12.3501C13.3681 12.2645 13.3001 12.1629 13.2538 12.051C13.2074 11.9391 13.1835 11.8192 13.1835 11.698C13.1835 11.5769 13.2074 11.457 13.2538 11.3451C13.3001 11.2332 13.3681 11.1316 13.4538 11.046Z" fill="white"/>
<path d="M7.08516 16.5344L8.40312 15.2487C8.45185 15.2081 8.49166 15.1578 8.52005 15.101C8.54844 15.0443 8.5648 14.9823 8.56811 14.9189C8.57141 14.8555 8.56159 14.7921 8.53927 14.7327C8.51694 14.6733 8.48258 14.6192 8.43835 14.5737C8.39412 14.5282 8.34096 14.4923 8.28221 14.4683C8.22347 14.4443 8.1604 14.4327 8.09695 14.4342C8.03351 14.4357 7.97106 14.4503 7.91352 14.4771C7.85598 14.5038 7.80459 14.5422 7.76257 14.5897L6.44 15.8755C6.39673 15.9178 6.36223 15.9683 6.33846 16.024C6.3147 16.0797 6.30214 16.1395 6.30149 16.2001C6.30085 16.2606 6.31214 16.3207 6.33472 16.3769C6.3573 16.4331 6.39072 16.4843 6.43309 16.5275C6.47545 16.5708 6.52592 16.6053 6.58161 16.6291C6.63731 16.6528 6.69714 16.6654 6.75769 16.666C6.81824 16.6667 6.87832 16.6554 6.93451 16.6328C6.9907 16.6102 7.04189 16.5768 7.08516 16.5344Z" fill="white"/>
<path d="M10.334 17.2349L9.02985 18.516C8.94402 18.6023 8.89584 18.7191 8.89584 18.8409C8.89584 18.9626 8.94402 19.0794 9.02985 19.1658C9.07268 19.2107 9.12415 19.2465 9.18116 19.2711C9.23818 19.2956 9.29957 19.3084 9.36164 19.3086C9.48094 19.3069 9.59492 19.259 9.67962 19.175L11.0022 17.8893C11.0452 17.8454 11.0791 17.7935 11.102 17.7365C11.1249 17.6795 11.1363 17.6186 11.1357 17.5572C11.135 17.4958 11.1223 17.4351 11.0982 17.3786C11.0741 17.3221 11.0392 17.2709 10.9953 17.228C10.9514 17.185 10.8995 17.1511 10.8425 17.1282C10.7855 17.1053 10.7246 17.0938 10.6632 17.0945C10.6018 17.0951 10.5411 17.1079 10.4846 17.1319C10.4281 17.156 10.377 17.191 10.334 17.2349Z" fill="white"/>
<path d="M7.08055 17.8247L6.72571 18.1565C6.67699 18.1972 6.63718 18.2475 6.60879 18.3042C6.5804 18.361 6.56404 18.423 6.56073 18.4864C6.55742 18.5497 6.56724 18.6131 6.58957 18.6725C6.6119 18.7319 6.64626 18.7861 6.69049 18.8316C6.73472 18.8771 6.78788 18.913 6.84662 18.937C6.90537 18.961 6.96844 18.9726 7.03188 18.9711C7.09533 18.9696 7.15777 18.955 7.21531 18.9282C7.27285 18.9014 7.32424 18.8631 7.36626 18.8155L7.71188 18.4837C7.79988 18.3982 7.85029 18.2812 7.85202 18.1584C7.85375 18.0357 7.80665 17.9173 7.7211 17.8293C7.63555 17.7413 7.51854 17.6909 7.39582 17.6892C7.2731 17.6875 7.15472 17.7346 7.06673 17.8201L7.08055 17.8247Z" fill="white"/>
<path d="M9.69805 15.9169C9.61171 15.8311 9.49491 15.7829 9.37316 15.7829C9.25142 15.7829 9.13462 15.8311 9.04828 15.9169L8.02524 16.9031C7.98205 16.9459 7.94777 16.9969 7.92437 17.0531C7.90098 17.1092 7.88893 17.1695 7.88893 17.2303C7.88893 17.2911 7.90098 17.3514 7.92437 17.4075C7.94777 17.4637 7.98205 17.5146 8.02524 17.5575C8.06792 17.601 8.11882 17.6357 8.17498 17.6594C8.23115 17.6831 8.29146 17.6955 8.35243 17.6957C8.47267 17.6965 8.58844 17.6501 8.67501 17.5667L9.69805 16.5713C9.74124 16.5285 9.77552 16.4775 9.79892 16.4213C9.82231 16.3652 9.83436 16.305 9.83436 16.2441C9.83436 16.1833 9.82231 16.1231 9.79892 16.0669C9.77552 16.0107 9.74124 15.9598 9.69805 15.9169Z" fill="white"/>
</g>
<defs>
<clipPath id="clip0_12_81">
<rect x="0.786758" y="0.202026" width="111.213" height="25.023" rx="5" fill="white"/>
</clipPath>
<clipPath id="clip1_12_81">
<rect width="37.0154" height="14.0403" fill="white" transform="translate(69.7206 3.87849)"/>
</clipPath>
</defs>
</svg>
